HIERARCHY
ROOT Hips
{
	OFFSET 0.000000 83.214638 0.000000
	CHANNELS 6 Xposition Yposition Zposition Xrotation Yrotation Zrotation
	JOINT Pelvis
	{
		OFFSET 0.000000 0.000000 0.000000
		CHANNELS 3 Xrotation Yrotation Zrotation
		JOINT LeftUpLeg
		{
			OFFSET 8.479700 -4.795502 -0.379100
			CHANNELS 3 Xrotation Yrotation Zrotation
			JOINT LeftLeg
			{
				OFFSET 0.024144 -32.555107 0.112900
				CHANNELS 3 Xrotation Yrotation Zrotation
				JOINT LeftFoot
				{
					OFFSET -0.024144 -32.638630 -3.012600
					CHANNELS 3 Xrotation Yrotation Zrotation
					JOINT LeftToeBase
					{
						OFFSET 0.970200 -13.225400 11.864200
						CHANNELS 3 Xrotation Yrotation Zrotation
						End Site
						{
							OFFSET 0.000000 12.319262 0.000000
						}
					}
					JOINT LFootTongue
					{
						OFFSET 1.142400 -1.059800 6.665200
						CHANNELS 3 Xrotation Yrotation Zrotation
						End Site
						{
							OFFSET 0.000000 12.319262 0.000000
						}
					}
				}
				JOINT LeftPantLeg
				{
					OFFSET 0.918482 -16.533964 -2.284700
					CHANNELS 3 Xrotation Yrotation Zrotation
					End Site
					{
						OFFSET 0.350399 24.744368 0.000000
					}
				}
			}
		}
		JOINT RightUpLeg
		{
			OFFSET -8.479700 -4.795502 -0.379100
			CHANNELS 3 Xrotation Yrotation Zrotation
			JOINT RightLeg
			{
				OFFSET -0.023144 -32.555092 0.112900
				CHANNELS 3 Xrotation Yrotation Zrotation
				JOINT RightFoot
				{
					OFFSET 0.023144 -32.638641 -3.012700
					CHANNELS 3 Xrotation Yrotation Zrotation
					JOINT RightToeBase
					{
						OFFSET -0.970200 -13.225400 11.864200
						CHANNELS 3 Xrotation Yrotation Zrotation
						End Site
						{
							OFFSET 0.000000 12.319244 0.000000
						}
					}
					JOINT RFootTongue
					{
						OFFSET -1.142200 -1.059800 6.665200
						CHANNELS 3 Xrotation Yrotation Zrotation
						End Site
						{
							OFFSET 0.000000 12.319243 0.000000
						}
					}
				}
				JOINT RightPantLeg
				{
					OFFSET -0.919482 -16.533978 -2.284800
					CHANNELS 3 Xrotation Yrotation Zrotation
					End Site
					{
						OFFSET -0.350400 24.744419 0.000000
					}
				}
			}
		}
	}
	JOINT Spine
	{
		OFFSET 0.000000 7.722000 1.166200
		CHANNELS 3 Xrotation Yrotation Zrotation
		JOINT Spine1
		{
			OFFSET 0.000000 12.024101 0.248800
			CHANNELS 3 Xrotation Yrotation Zrotation
			JOINT Spine2
			{
				OFFSET 0.000000 11.502998 -0.491200
				CHANNELS 3 Xrotation Yrotation Zrotation
				JOINT Neck
				{
					OFFSET 0.000000 18.430702 -3.123100
					CHANNELS 3 Xrotation Yrotation Zrotation
					JOINT Head
					{
						OFFSET 0.000000 9.051102 1.034000
						CHANNELS 3 Xrotation Yrotation Zrotation
						JOINT HairB
						{
							OFFSET 0.208400 24.786102 24.822300
							CHANNELS 3 Xrotation Yrotation Zrotation
							End Site
							{
								OFFSET 0.000000 32.263779 0.000000
							}
						}
						JOINT HairA
						{
							OFFSET -7.081100 24.428299 23.196600
							CHANNELS 3 Xrotation Yrotation Zrotation
							End Site
							{
								OFFSET 0.000000 32.263779 0.000000
							}
						}
						JOINT Hat
						{
							OFFSET 16.728800 15.048294 -15.439601
							CHANNELS 3 Xrotation Yrotation Zrotation
							End Site
							{
								OFFSET 0.000000 32.263779 0.000000
							}
						}
					}
				}
				JOINT LeftShoulder
				{
					OFFSET 6.197800 13.665199 -4.064700
					CHANNELS 3 Xrotation Yrotation Zrotation
					JOINT LeftArm
					{
						OFFSET 7.778100 -0.187103 -1.709300
						CHANNELS 3 Xrotation Yrotation Zrotation
						JOINT LeftForeArm
						{
							OFFSET 22.049376 0.000000 0.000000
							CHANNELS 3 Xrotation Yrotation Zrotation
							JOINT LeftHand
							{
								OFFSET 23.009392 0.000000 0.000000
								CHANNELS 3 Xrotation Yrotation Zrotation
								JOINT LeftHandThumb1
								{
									OFFSET 3.507191 -2.063065 3.133727
									CHANNELS 3 Xrotation Yrotation Zrotation
									JOINT LeftHandThumb2
									{
										OFFSET 3.101337 -1.790558 1.790558
										CHANNELS 3 Xrotation Yrotation Zrotation
										JOINT LeftHandThumb3
										{
											OFFSET 3.058640 -1.765907 1.765906
											CHANNELS 3 Xrotation Yrotation Zrotation
											End Site
											{
												OFFSET -0.415260 3.926476 -0.049563
											}
										}
									}
								}
								JOINT LeftHandIndex1
								{
									OFFSET 11.334419 -0.901459 3.706815
									CHANNELS 3 Xrotation Yrotation Zrotation
									JOINT LeftHandIndex2
									{
										OFFSET 3.283112 0.000000 0.000000
										CHANNELS 3 Xrotation Yrotation Zrotation
										JOINT LeftHandIndex3
										{
											OFFSET 3.323853 0.000000 0.000000
											CHANNELS 3 Xrotation Yrotation Zrotation
											End Site
											{
												OFFSET -1.135597 3.097809 0.402452
											}
										}
									}
								}
								JOINT LeftHandMiddle1
								{
									OFFSET 11.335861 0.000000 0.000000
									CHANNELS 3 Xrotation Yrotation Zrotation
									JOINT LeftHandMiddle2
									{
										OFFSET 3.410492 0.000000 0.000000
										CHANNELS 3 Xrotation Yrotation Zrotation
										JOINT LeftHandMiddle3
										{
											OFFSET 3.312172 0.000000 0.000000
											CHANNELS 3 Xrotation Yrotation Zrotation
											End Site
											{
												OFFSET -1.150200 3.080154 0.400270
											}
										}
									}
								}
								JOINT LeftHandRing1
								{
									OFFSET 11.514786 -0.013176 -3.003090
									CHANNELS 3 Xrotation Yrotation Zrotation
									JOINT LeftHandRing2
									{
										OFFSET 3.053307 0.000000 0.000000
										CHANNELS 3 Xrotation Yrotation Zrotation
										JOINT LeftHandRing3
										{
											OFFSET 3.295807 0.000000 0.000000
											CHANNELS 3 Xrotation Yrotation Zrotation
											End Site
											{
												OFFSET -1.281006 3.013344 0.375733
											}
										}
									}
								}
								JOINT LeftHandPinky1
								{
									OFFSET 10.518692 -0.960396 -5.730441
									CHANNELS 3 Xrotation Yrotation Zrotation
									JOINT LeftHandPinky2
									{
										OFFSET 2.861649 0.000000 0.000000
										CHANNELS 3 Xrotation Yrotation Zrotation
										JOINT LeftHandPinky3
										{
											OFFSET 2.863380 0.000000 0.000000
											CHANNELS 3 Xrotation Yrotation Zrotation
											End Site
											{
												OFFSET -0.843597 2.711159 0.369971
											}
										}
									}
								}
							}
							JOINT LSleeve
							{
								OFFSET 6.676277 -0.344902 -1.011730
								CHANNELS 3 Xrotation Yrotation Zrotation
								End Site
								{
									OFFSET 0.000000 14.885353 0.000000
								}
							}
						}
					}
				}
				JOINT RightShoulder
				{
					OFFSET -6.197800 13.665199 -4.064700
					CHANNELS 3 Xrotation Yrotation Zrotation
					JOINT RightArm
					{
						OFFSET -7.778100 -0.187103 -1.709300
						CHANNELS 3 Xrotation Yrotation Zrotation
						JOINT RightForeArm
						{
							OFFSET -22.049376 0.000000 0.000000
							CHANNELS 3 Xrotation Yrotation Zrotation
							JOINT RightHand
							{
								OFFSET -23.009392 0.000000 0.000000
								CHANNELS 3 Xrotation Yrotation Zrotation
								JOINT RightHandThumb1
								{
									OFFSET -3.507191 -2.063065 3.133727
									CHANNELS 3 Xrotation Yrotation Zrotation
									JOINT RightHandThumb2
									{
										OFFSET -3.101337 -1.790558 1.790558
										CHANNELS 3 Xrotation Yrotation Zrotation
										JOINT RightHandThumb3
										{
											OFFSET -3.058640 -1.765907 1.765906
											CHANNELS 3 Xrotation Yrotation Zrotation
											End Site
											{
												OFFSET 0.415260 3.926476 -0.049563
											}
										}
									}
								}
								JOINT RightHandIndex1
								{
									OFFSET -11.334419 -0.901459 3.706815
									CHANNELS 3 Xrotation Yrotation Zrotation
									JOINT RightHandIndex2
									{
										OFFSET -3.283112 0.000000 0.000000
										CHANNELS 3 Xrotation Yrotation Zrotation
										JOINT RightHandIndex3
										{
											OFFSET -3.323853 0.000000 0.000000
											CHANNELS 3 Xrotation Yrotation Zrotation
											End Site
											{
												OFFSET 1.135597 3.097809 0.402452
											}
										}
									}
								}
								JOINT RightHandMiddle1
								{
									OFFSET -11.335861 0.000000 0.000000
									CHANNELS 3 Xrotation Yrotation Zrotation
									JOINT RightHandMiddle2
									{
										OFFSET -3.410492 0.000000 0.000000
										CHANNELS 3 Xrotation Yrotation Zrotation
										JOINT RightHandMiddle3
										{
											OFFSET -3.312172 0.000000 0.000000
											CHANNELS 3 Xrotation Yrotation Zrotation
											End Site
											{
												OFFSET 1.150200 3.080154 0.400270
											}
										}
									}
								}
								JOINT RightHandRing1
								{
									OFFSET -11.514786 -0.013176 -3.003090
									CHANNELS 3 Xrotation Yrotation Zrotation
									JOINT RightHandRing2
									{
										OFFSET -3.053307 0.000000 0.000000
										CHANNELS 3 Xrotation Yrotation Zrotation
										JOINT RightHandRing3
										{
											OFFSET -3.295807 0.000000 0.000000
											CHANNELS 3 Xrotation Yrotation Zrotation
											End Site
											{
												OFFSET 1.281006 3.013344 0.375733
											}
										}
									}
								}
								JOINT RightHandPinky1
								{
									OFFSET -10.518692 -0.960396 -5.730441
									CHANNELS 3 Xrotation Yrotation Zrotation
									JOINT RightHandPinky2
									{
										OFFSET -2.861649 0.000000 0.000000
										CHANNELS 3 Xrotation Yrotation Zrotation
										JOINT RightHandPinky3
										{
											OFFSET -2.863380 0.000000 0.000000
											CHANNELS 3 Xrotation Yrotation Zrotation
											End Site
											{
												OFFSET 0.843597 2.711159 0.369971
											}
										}
									}
								}
							}
							JOINT RSleeve
							{
								OFFSET -6.676277 -0.344902 -1.011730
								CHANNELS 3 Xrotation Yrotation Zrotation
								End Site
								{
									OFFSET 0.000000 14.885353 0.000000
								}
							}
						}
					}
				}
				JOINT Backpack
				{
					OFFSET 0.000000 -2.471497 36.677502
					CHANNELS 3 Xrotation Yrotation Zrotation
					End Site
					{
						OFFSET 0.000000 20.427315 0.000000
					}
				}
				JOINT Hood
				{
					OFFSET 0.000000 18.754097 -10.431000
					CHANNELS 3 Xrotation Yrotation Zrotation
					JOINT Hood1
					{
						OFFSET 0.000000 -5.011002 -7.685901
						CHANNELS 3 Xrotation Yrotation Zrotation
						End Site
						{
							OFFSET 0.000000 9.175140 0.000000
						}
					}
				}
				JOINT LHoodieString
				{
					OFFSET 5.250500 16.397697 3.089900
					CHANNELS 3 Xrotation Yrotation Zrotation
					JOINT LHoodieString1
					{
						OFFSET 0.257700 -6.364304 3.694600
						CHANNELS 3 Xrotation Yrotation Zrotation
						JOINT LHoodieString2
						{
							OFFSET 0.000000 -9.643799 2.679100
							CHANNELS 3 Xrotation Yrotation Zrotation
							End Site
							{
								OFFSET 0.000000 10.009018 0.000000
							}
						}
					}
				}
				JOINT RHoodieString
				{
					OFFSET -5.250500 16.397697 3.089900
					CHANNELS 3 Xrotation Yrotation Zrotation
					JOINT RHoodieString1
					{
						OFFSET -0.257700 -6.364304 3.694600
						CHANNELS 3 Xrotation Yrotation Zrotation
						JOINT RHoodieString2
						{
							OFFSET 0.000000 -9.643799 2.679100
							CHANNELS 3 Xrotation Yrotation Zrotation
							End Site
							{
								OFFSET 0.000000 10.009018 0.000000
							}
						}
					}
				}
			}
			JOINT LBackpack_Strap
			{
				OFFSET 15.223200 -7.719803 -6.610900
				CHANNELS 3 Xrotation Yrotation Zrotation
				End Site
				{
					OFFSET 0.000000 16.040596 0.000000
				}
			}
			JOINT RBackpack_Strap
			{
				OFFSET -15.223000 -7.719803 -6.610900
				CHANNELS 3 Xrotation Yrotation Zrotation
				End Site
				{
					OFFSET 0.000000 16.040596 0.000000
				}
			}
		}
	}
	JOINT BoyFacialAnim_Joint
	{
		OFFSET 1.000000 -82.208099 -1.550900
		CHANNELS 3 Xrotation Yrotation Zrotation
		End Site
		{
			OFFSET 0.000000 30.012791 0.000000
		}
	}
}
MOTION
Frames: 4
Frame Time: 0.016667
-0.056755 85.913330 -3.890572 -90.676854 -2.027399 1.806315 0.000000 0.000000 -0.000000 -4.976980 20.079520 15.685253 3.978098 1.343428 1.567625 23.094005 29.713088 -25.722062 -0.000000 0.000000 -0.000000 -0.000000 0.000000 -0.000000 0.000000 0.000000 -0.000001 -5.927100 -19.911455 -17.563611 1.470912 -5.960297 -4.758674 34.629715 -29.597269 30.431887 -0.000001 0.000002 0.000000 -0.000001 0.000002 0.000000 0.000001 0.000000 0.000002 0.643602 -0.167366 -0.881251 0.768337 0.010520 -0.441587 0.794644 0.003108 -0.423897 -4.679092 4.214176 -8.229254 4.592469 8.465935 -14.419380 0.000000 0.000001 -0.000000 0.000000 0.000001 -0.000000 0.000000 0.000001 -0.000000 0.826369 -6.003514 -3.769292 44.058156 -39.817069 -34.619565 0.000335 -83.309443 0.000352 -22.984416 -8.371310 7.116292 -1.945773 1.585332 13.204781 8.601857 21.114936 -0.258285 -0.000001 0.000001 -0.000000 0.776301 5.158035 -28.512486 0.566012 2.514188 -25.370932 -0.000000 0.000003 -0.000001 0.776297 5.158036 -28.512490 0.566010 2.514183 -25.370939 -0.000000 0.000002 0.000002 0.776309 5.158031 -28.512505 0.351459 2.000425 -19.928019 -0.000002 -0.000000 -0.000001 0.776306 5.158028 -28.512490 0.064898 0.870537 -8.527010 -0.000000 -0.000002 -0.000002 0.000000 0.000001 -0.000002 0.511989 4.220235 2.974419 -4.382353 2.494186 83.944172 0.000019 129.402428 -0.000024 -0.000551 -5.590391 64.849593 -1.120903 -3.665706 -6.555848 8.244869 -30.620776 -3.274774 -0.000000 -0.000000 -0.000001 4.540611 -8.344339 48.387389 6.575565 -4.244530 114.349094 -0.000004 -0.000001 -0.000000 2.375475 -6.542202 44.640207 7.222613 -3.888184 123.454822 -0.000001 -0.000001 -0.000002 2.745573 -6.923865 44.442282 7.225013 -3.886603 123.490312 -0.000001 -0.000003 0.000000 -10.268024 -14.528490 47.436292 6.314169 -4.353061 110.862890 -0.000002 0.000000 -0.000001 -0.000000 0.000003 -0.000000 -0.000000 0.000000 -0.000000 -0.000000 0.000000 -0.000000 -0.000000 0.000000 -0.000000 -0.000000 0.000000 -0.000000 -0.000000 0.000000 -0.000000 -0.000000 0.000000 -0.000000 -0.000000 0.000000 -0.000000 -0.000000 0.000000 -0.000000 -0.000000 0.000000 -0.000000 0.000000 0.000000 0.000000 0.000000 0.000000 0.000000 0.000000 0.000000 -0.000000 
-0.053420 85.912964 -3.890076 -90.684517 -2.023026 1.804117 -0.000000 0.000000 -0.000000 -4.975849 20.081511 15.686848 3.988547 1.348872 1.567664 23.086314 29.711282 -25.716743 -0.000000 -0.000000 -0.000000 -0.000000 -0.000000 -0.000000 -0.000000 0.000000 0.000002 -5.914494 -19.912402 -17.563937 1.466088 -5.970403 -4.758858 34.631142 -29.596487 30.437468 -0.000000 -0.000001 0.000000 -0.000000 -0.000001 0.000000 0.000001 -0.000002 -0.000000 0.643948 -0.167583 -0.874433 0.775535 0.010199 -0.441929 0.799325 0.002338 -0.423854 -4.701084 4.246301 -8.217697 5.074986 8.483811 -14.697203 -0.000000 -0.000001 -0.000001 -0.000000 -0.000001 -0.000001 -0.000000 -0.000001 -0.000001 0.821171 -6.021020 -3.761133 44.049485 -39.813002 -34.639055 0.000608 -83.307134 0.000593 -22.981577 -8.387151 7.124572 -1.945773 1.585331 13.204782 8.601858 21.114941 -0.258291 0.000003 -0.000000 0.000003 0.776301 5.158035 -28.512495 0.566015 2.514192 -25.370936 -0.000000 0.000000 -0.000002 0.776294 5.158036 -28.512492 0.566013 2.514180 -25.370944 -0.000002 0.000001 0.000000 0.776309 5.158031 -28.512503 0.351461 2.000422 -19.928016 0.000000 -0.000000 -0.000002 0.776306 5.158029 -28.512490 0.064898 0.870539 -8.527011 0.000000 -0.000002 -0.000002 -0.000000 0.000001 0.000001 0.506628 4.242359 2.977800 -4.368387 2.476191 83.932821 0.000024 129.413520 -0.000018 -0.003260 -5.593547 64.841950 -1.120904 -3.665707 -6.555848 8.244875 -30.620773 -3.274767 0.000000 -0.000002 0.000003 4.540610 -8.344335 48.387389 6.575561 -4.244527 114.349101 -0.000003 -0.000001 0.000003 2.375475 -6.542202 44.640207 7.222614 -3.888183 123.454822 0.000001 0.000000 0.000002 2.745565 -6.923865 44.442286 7.225009 -3.886603 123.490312 -0.000001 -0.000001 -0.000002 -10.268021 -14.528490 47.436292 6.314170 -4.353064 110.862897 -0.000002 -0.000004 -0.000000 -0.000000 -0.000003 -0.000000 -0.000000 -0.000000 -0.000000 -0.000000 -0.000000 -0.000000 -0.000000 -0.000000 -0.000000 -0.000000 -0.000000 -0.000000 -0.000000 -0.000000 -0.000000 -0.000000 -0.000000 -0.000000 -0.000000 -0.000000 -0.000000 -0.000000 -0.000000 -0.000000 -0.000000 -0.000000 -0.000000 0.000000 0.000000 0.000000 0.000000 0.000000 0.000000 -0.000000 0.000000 -0.000000 
-0.049859 85.912445 -3.889122 -90.692201 -2.018602 1.801777 0.000000 0.000000 -0.000000 -4.975380 20.082911 15.689076 4.002580 1.352255 1.567691 23.077527 29.708543 -25.716019 -0.000000 0.000002 -0.000000 -0.000000 0.000002 -0.000000 -0.000000 0.000001 0.000000 -5.903375 -19.912923 -17.564702 1.464472 -5.982825 -4.759032 34.631221 -29.595749 30.443690 0.000001 0.000002 -0.000000 0.000001 0.000002 -0.000000 -0.000001 0.000000 0.000001 0.644192 -0.167744 -0.866716 0.783323 0.010057 -0.442169 0.801151 0.001820 -0.423847 -4.737152 4.281858 -8.205620 5.647827 8.498316 -15.023532 0.000000 -0.000000 0.000000 0.000000 -0.000000 0.000000 0.000000 -0.000000 0.000000 0.816278 -6.034782 -3.754558 44.044885 -39.812356 -34.650181 0.000411 -83.304136 0.000433 -22.980136 -8.404216 7.133041 -1.945769 1.585334 13.204782 8.601860 21.114941 -0.258283 0.000001 -0.000004 0.000005 0.776303 5.158038 -28.512500 0.566011 2.514190 -25.370939 -0.000000 0.000002 -0.000001 0.776299 5.158038 -28.512498 0.566010 2.514181 -25.370939 -0.000001 0.000004 0.000001 0.776310 5.158031 -28.512509 0.351458 2.000426 -19.928016 -0.000000 -0.000003 -0.000001 0.776306 5.158029 -28.512490 0.064897 0.870533 -8.527007 -0.000000 -0.000001 -0.000000 0.000001 -0.000002 -0.000002 0.501672 4.258664 2.981407 -4.356466 2.463914 83.921817 -0.000019 129.421921 0.000024 -0.006382 -5.596633 64.834177 -1.120904 -3.665708 -6.555850 8.244870 -30.620773 -3.274772 -0.000002 -0.000001 0.000001 4.540617 -8.344335 48.387389 6.575564 -4.244530 114.349094 -0.000001 -0.000001 0.000003 2.375474 -6.542203 44.640201 7.222614 -3.888185 123.454822 0.000003 0.000000 0.000002 2.745568 -6.923866 44.442282 7.225008 -3.886603 123.490312 -0.000000 0.000002 0.000001 -10.268018 -14.528492 47.436292 6.314169 -4.353066 110.862897 -0.000000 -0.000002 -0.000002 -0.000000 -0.000001 -0.000001 0.000000 -0.000000 -0.000000 0.000000 -0.000000 -0.000000 0.000000 -0.000000 -0.000000 0.000000 -0.000000 -0.000000 0.000000 -0.000000 -0.000000 0.000000 -0.000000 -0.000000 0.000000 -0.000000 -0.000000 0.000000 -0.000000 -0.000000 0.000000 -0.000000 -0.000000 -0.000000 -0.000000 0.000000 -0.000000 -0.000000 0.000000 0.000000 0.000000 -0.000000 
-0.046181 85.911804 -3.887772 -90.699141 -2.014166 1.799373 0.000000 -0.000000 -0.000000 -4.977757 20.083485 15.690613 4.011443 1.309619 1.567741 23.082727 29.702823 -25.725003 -0.000000 0.000002 -0.000001 -0.000000 0.000002 -0.000001 0.000001 0.000001 0.000000 -5.896467 -19.912889 -17.564795 1.463180 -5.968840 -4.759243 34.642320 -29.594984 30.448276 -0.000000 -0.000000 -0.000000 -0.000000 -0.000000 -0.000000 0.000001 0.000000 -0.000001 0.644380 -0.167849 -0.858353 0.790639 0.010042 -0.442317 0.802097 0.001532 -0.423876 -4.784990 4.319757 -8.193455 6.265797 8.513241 -15.381159 0.000001 0.000001 -0.000001 0.000001 0.000001 -0.000001 0.000001 0.000001 -0.000001 0.814095 -6.042072 -3.750280 44.046326 -39.816212 -34.649259 0.000534 -83.299396 0.000524 -22.982834 -8.421623 7.140843 -1.945770 1.585334 13.204786 8.601865 21.114936 -0.258285 0.000001 0.000004 -0.000002 0.776301 5.158038 -28.512495 0.566012 2.514188 -25.370936 -0.000001 -0.000000 -0.000002 0.776294 5.158036 -28.512495 0.566012 2.514182 -25.370943 0.000001 -0.000000 -0.000002 0.776309 5.158031 -28.512503 0.351460 2.000425 -19.928016 -0.000000 0.000001 -0.000002 0.776305 5.158029 -28.512486 0.064899 0.870534 -8.527008 -0.000001 -0.000000 -0.000002 0.000001 0.000002 -0.000001 0.495734 4.266200 2.985393 -4.348694 2.459908 83.910274 0.000061 129.426484 -0.000071 -0.009919 -5.599731 64.826644 -1.120900 -3.665704 -6.555853 8.244870 -30.620773 -3.274772 -0.000001 -0.000001 0.000001 4.540610 -8.344340 48.387396 6.575564 -4.244531 114.349094 -0.000000 -0.000001 0.000002 2.375477 -6.542201 44.640207 7.222618 -3.888186 123.454822 -0.000002 0.000002 -0.000005 2.745566 -6.923866 44.442286 7.225007 -3.886600 123.490312 -0.000000 -0.000001 -0.000003 -10.268020 -14.528494 47.436289 6.314170 -4.353066 110.862897 0.000001 0.000000 -0.000003 -0.000000 0.000004 0.000000 -0.000000 0.000000 -0.000000 -0.000000 0.000000 -0.000000 -0.000000 0.000000 -0.000000 -0.000000 0.000000 -0.000000 -0.000000 0.000000 -0.000000 -0.000000 0.000000 -0.000000 -0.000000 0.000000 -0.000000 -0.000000 0.000000 -0.000000 -0.000000 0.000000 -0.000000 -0.000000 0.000000 -0.000000 -0.000000 0.000000 -0.000000 0.000000 -0.000000 -0.000000 
